<?xml version="1.0" encoding="UTF-8" standalone="no"?>
<!DOCTYPE svg PUBLIC "-//W3C//DTD SVG 1.1//EN" "http://www.w3.org/Graphics/SVG/1.1/DTD/svg11.dtd">
<svg width="100%" height="100%" viewBox="0 0 1255 311" version="1.1" xmlns="http://www.w3.org/2000/svg" xmlns:xlink="http://www.w3.org/1999/xlink" xml:space="preserve" xmlns:serif="http://www.serif.com/" style="fill-rule:evenodd;clip-rule:evenodd;stroke-linejoin:round;stroke-miterlimit:2;">
    <g transform="matrix(1,0,0,1,1.42109e-14,-39.7001)">
        <g id="Artboard1" transform="matrix(3.16102,0,0,0.78313,-3.13011,39.5424)">
            <rect x="0.99" y="0.201" width="396.806" height="396.806" style="fill:none;"/>
            <g transform="matrix(0.568473,0,0,2.29458,-59.2202,-161.324)">
                <g>
                    <g transform="matrix(1,0,0,1,0.990222,0.201389)">
                        <path d="M222.932,121.659C222.932,121.659 209.865,127.06 202.215,118.732C195.144,112.078 198.306,115.291 201.015,113.678C202.97,112.514 223.116,91.088 231.692,87.245C240.268,83.402 239.702,86.814 238.729,92.21C238.509,93.251 236.813,102.216 222.932,121.659Z" style="fill:url(#_Linear1);"/>
                    </g>
                    <g transform="matrix(1,0,0,1,0.990222,0.201389)">
                        <path d="M199.343,152.457C199.343,152.457 200.149,147.568 206.49,140.797C212.831,134.025 218.947,127.45 223.096,121.593C208.027,126.976 199.72,115.721 198.375,114.405C197.436,113.485 177.329,93.327 166.04,86.646C160.274,82.934 157.672,88.45 160.104,93.949C162.463,99.287 166.156,109.206 178.304,125.044C190.206,140.561 194.148,140.15 199.343,152.457Z" style="fill:url(#_Linear2);"/>
                    </g>
                    <g transform="matrix(1,0,0,1,0.0579812,0.365386)">
                        <circle cx="200.211" cy="92.3" r="8.819" style="fill:rgb(244,120,139);"/>
                    </g>
                </g>
                <g transform="matrix(6.12323e-17,1,-1,6.12323e-17,358.256,-42.1839)">
                    <g transform="matrix(1,0,0,1,0.990222,0.201389)">
                        <path d="M222.932,121.659C222.932,121.659 209.865,127.06 202.215,118.732C195.144,112.078 198.306,115.291 201.015,113.678C202.97,112.514 223.116,91.088 231.692,87.245C240.268,83.402 239.702,86.814 238.729,92.21C238.509,93.251 236.813,102.216 222.932,121.659Z" style="fill:url(#_Linear3);"/>
                    </g>
                    <g transform="matrix(1,0,0,1,0.990222,0.201389)">
                        <path d="M199.343,152.457C199.343,152.457 200.149,147.568 206.49,140.797C212.831,134.025 218.947,127.45 223.096,121.593C208.027,126.976 199.72,115.721 198.375,114.405C197.436,113.485 177.329,93.327 166.04,86.646C160.274,82.934 157.672,88.45 160.104,93.949C162.463,99.287 166.156,109.206 178.304,125.044C190.206,140.561 194.148,140.15 199.343,152.457Z" style="fill:url(#_Linear4);"/>
                    </g>
                    <g transform="matrix(1,0,0,1,0.0579812,0.365386)">
                        <circle cx="200.211" cy="92.3" r="8.819" style="fill:rgb(244,120,139);"/>
                    </g>
                </g>
                <g transform="matrix(-1,1.22465e-16,-1.22465e-16,-1,400.44,316.072)">
                    <g transform="matrix(1,0,0,1,0.990222,0.201389)">
                        <path d="M222.932,121.659C222.932,121.659 209.865,127.06 202.215,118.732C195.144,112.078 198.306,115.291 201.015,113.678C202.97,112.514 223.116,91.088 231.692,87.245C240.268,83.402 239.702,86.814 238.729,92.21C238.509,93.251 236.813,102.216 222.932,121.659Z" style="fill:url(#_Linear5);"/>
                    </g>
                    <g transform="matrix(1,0,0,1,0.990222,0.201389)">
                        <path d="M199.343,152.457C199.343,152.457 200.149,147.568 206.49,140.797C212.831,134.025 218.947,127.45 223.096,121.593C208.027,126.976 199.72,115.721 198.375,114.405C197.436,113.485 177.329,93.327 166.04,86.646C160.274,82.934 157.672,88.45 160.104,93.949C162.463,99.287 166.156,109.206 178.304,125.044C190.206,140.561 194.148,140.15 199.343,152.457Z" style="fill:url(#_Linear6);"/>
                    </g>
                    <g transform="matrix(1,0,0,1,0.0579812,0.365386)">
                        <circle cx="200.211" cy="92.3" r="8.819" style="fill:rgb(244,120,139);"/>
                    </g>
                </g>
                <g transform="matrix(-1.83697e-16,-1,1,-1.83697e-16,42.1839,358.256)">
                    <g transform="matrix(1,0,0,1,0.990222,0.201389)">
                        <path d="M222.932,121.659C222.932,121.659 209.865,127.06 202.215,118.732C195.144,112.078 198.306,115.291 201.015,113.678C202.97,112.514 223.116,91.088 231.692,87.245C240.268,83.402 239.702,86.814 238.729,92.21C238.509,93.251 236.813,102.216 222.932,121.659Z" style="fill:url(#_Linear7);"/>
                    </g>
                    <g transform="matrix(1,0,0,1,0.990222,0.201389)">
                        <path d="M199.343,152.457C199.343,152.457 200.149,147.568 206.49,140.797C212.831,134.025 218.947,127.45 223.096,121.593C208.027,126.976 199.72,115.721 198.375,114.405C197.436,113.485 177.329,93.327 166.04,86.646C160.274,82.934 157.672,88.45 160.104,93.949C162.463,99.287 166.156,109.206 178.304,125.044C190.206,140.561 194.148,140.15 199.343,152.457Z" style="fill:url(#_Linear8);"/>
                    </g>
                    <g transform="matrix(1,0,0,1,0.0579812,0.365386)">
                        <circle cx="200.211" cy="92.3" r="8.819" style="fill:rgb(244,120,139);"/>
                    </g>
                </g>
            </g>
            <g transform="matrix(0.962092,0,0,3.88338,64.1418,-910.195)">
                <text x="48.462px" y="278.753px" style="font-family:'THICCCBOI-Regular', 'THICCCBOI';font-size:50px;fill:rgb(39,39,39);">J<tspan x="75.462px 114.662px " y="278.753px 278.753px ">OB</tspan> W<tspan x="201.562px 226.862px 251.662px 288.062px " y="278.753px 278.753px 278.753px 278.753px ">ATCH</tspan></text>
            </g>
            <g transform="matrix(0.400181,0,0,1.61529,110.458,359.612)">
                <g transform="matrix(150,0,0,150,657.9,0)">
                </g>
                <text x="0px" y="0px" style="font-family:'THICCCBOI-ExtraBold', 'THICCCBOI';font-weight:800;font-size:150px;fill:rgb(37,35,35);">C<tspan x="114.6px 224.4px 333.75px 442.8px 554.7px " y="0px 0px 0px 0px 0px ">ANADA</tspan></text>
            </g>
        </g>
    </g>
    <defs>
        <linearGradient id="_Linear1" x1="0" y1="0" x2="1" y2="0" gradientUnits="userSpaceOnUse" gradientTransform="matrix(-31.252,35.0297,-35.0297,-31.252,238.613,86.3692)"><stop offset="0" style="stop-color:rgb(165,14,36);stop-opacity:1"/><stop offset="1" style="stop-color:rgb(62,5,13);stop-opacity:1"/></linearGradient>
        <linearGradient id="_Linear2" x1="0" y1="0" x2="1" y2="0" gradientUnits="userSpaceOnUse" gradientTransform="matrix(50.7222,49.6914,-49.6914,50.7222,160.465,86.3493)"><stop offset="0" style="stop-color:rgb(245,130,148);stop-opacity:1"/><stop offset="1" style="stop-color:rgb(242,100,122);stop-opacity:1"/></linearGradient>
        <linearGradient id="_Linear3" x1="0" y1="0" x2="1" y2="0" gradientUnits="userSpaceOnUse" gradientTransform="matrix(-31.252,35.0297,-35.0297,-31.252,238.613,86.3692)"><stop offset="0" style="stop-color:rgb(165,14,36);stop-opacity:1"/><stop offset="1" style="stop-color:rgb(62,5,13);stop-opacity:1"/></linearGradient>
        <linearGradient id="_Linear4" x1="0" y1="0" x2="1" y2="0" gradientUnits="userSpaceOnUse" gradientTransform="matrix(50.7222,49.6914,-49.6914,50.7222,160.465,86.3493)"><stop offset="0" style="stop-color:rgb(245,130,148);stop-opacity:1"/><stop offset="1" style="stop-color:rgb(242,100,122);stop-opacity:1"/></linearGradient>
        <linearGradient id="_Linear5" x1="0" y1="0" x2="1" y2="0" gradientUnits="userSpaceOnUse" gradientTransform="matrix(-31.252,35.0297,-35.0297,-31.252,238.613,86.3692)"><stop offset="0" style="stop-color:rgb(165,14,36);stop-opacity:1"/><stop offset="1" style="stop-color:rgb(62,5,13);stop-opacity:1"/></linearGradient>
        <linearGradient id="_Linear6" x1="0" y1="0" x2="1" y2="0" gradientUnits="userSpaceOnUse" gradientTransform="matrix(50.7222,49.6914,-49.6914,50.7222,160.465,86.3493)"><stop offset="0" style="stop-color:rgb(245,130,148);stop-opacity:1"/><stop offset="1" style="stop-color:rgb(242,100,122);stop-opacity:1"/></linearGradient>
        <linearGradient id="_Linear7" x1="0" y1="0" x2="1" y2="0" gradientUnits="userSpaceOnUse" gradientTransform="matrix(-31.252,35.0297,-35.0297,-31.252,238.613,86.3692)"><stop offset="0" style="stop-color:rgb(165,14,36);stop-opacity:1"/><stop offset="1" style="stop-color:rgb(62,5,13);stop-opacity:1"/></linearGradient>
        <linearGradient id="_Linear8" x1="0" y1="0" x2="1" y2="0" gradientUnits="userSpaceOnUse" gradientTransform="matrix(50.7222,49.6914,-49.6914,50.7222,160.465,86.3493)"><stop offset="0" style="stop-color:rgb(245,130,148);stop-opacity:1"/><stop offset="1" style="stop-color:rgb(242,100,122);stop-opacity:1"/></linearGradient>
    </defs>
</svg>
